<mxfile host="app.diagrams.net" agent="Mozilla/5.0 (Macintosh; Intel Mac OS X 10_15_7) AppleWebKit/537.36 (KHTML, like Gecko) Chrome/128.0.0.0 Safari/537.36" version="24.7.15">
  <diagram name="第 1 页" id="y41JsbuB6MFeitPKXDg3">
    <mxGraphModel dx="984" dy="577" grid="1" gridSize="10" guides="1" tooltips="1" connect="1" arrows="1" fold="1" page="1" pageScale="1" pageWidth="827" pageHeight="1169" math="0" shadow="0">
      <root>
        <mxCell id="0" />
        <mxCell id="1" parent="0" />
        <mxCell id="Oml2CRXNZt8NFHJ0AKYk-7" style="edgeStyle=orthogonalEdgeStyle;rounded=0;orthogonalLoop=1;jettySize=auto;html=1;exitX=1;exitY=0.5;exitDx=0;exitDy=0;entryX=0;entryY=0.5;entryDx=0;entryDy=0;" edge="1" parent="1" source="Oml2CRXNZt8NFHJ0AKYk-1" target="Oml2CRXNZt8NFHJ0AKYk-3">
          <mxGeometry relative="1" as="geometry" />
        </mxCell>
        <mxCell id="Oml2CRXNZt8NFHJ0AKYk-8" style="edgeStyle=orthogonalEdgeStyle;rounded=0;orthogonalLoop=1;jettySize=auto;html=1;exitX=1;exitY=0.5;exitDx=0;exitDy=0;entryX=0;entryY=0.5;entryDx=0;entryDy=0;" edge="1" parent="1" source="Oml2CRXNZt8NFHJ0AKYk-1" target="Oml2CRXNZt8NFHJ0AKYk-5">
          <mxGeometry relative="1" as="geometry" />
        </mxCell>
        <mxCell id="Oml2CRXNZt8NFHJ0AKYk-1" value="系统平台" style="rounded=1;whiteSpace=wrap;html=1;fillColor=#dae8fc;strokeColor=#6c8ebf;fontSize=17;" vertex="1" parent="1">
          <mxGeometry x="100" y="250" width="120" height="60" as="geometry" />
        </mxCell>
        <mxCell id="Oml2CRXNZt8NFHJ0AKYk-6" style="edgeStyle=orthogonalEdgeStyle;rounded=0;orthogonalLoop=1;jettySize=auto;html=1;exitX=0.5;exitY=0;exitDx=0;exitDy=0;entryX=0.5;entryY=1;entryDx=0;entryDy=0;" edge="1" parent="1" source="Oml2CRXNZt8NFHJ0AKYk-2" target="Oml2CRXNZt8NFHJ0AKYk-1">
          <mxGeometry relative="1" as="geometry" />
        </mxCell>
        <mxCell id="Oml2CRXNZt8NFHJ0AKYk-2" value="CSV文件" style="rounded=1;whiteSpace=wrap;html=1;fillColor=#d5e8d4;strokeColor=#82b366;fontSize=17;" vertex="1" parent="1">
          <mxGeometry x="100" y="380" width="120" height="40" as="geometry" />
        </mxCell>
        <mxCell id="Oml2CRXNZt8NFHJ0AKYk-29" style="edgeStyle=orthogonalEdgeStyle;rounded=0;orthogonalLoop=1;jettySize=auto;html=1;exitX=1;exitY=0.5;exitDx=0;exitDy=0;entryX=0;entryY=0.5;entryDx=0;entryDy=0;" edge="1" parent="1" source="Oml2CRXNZt8NFHJ0AKYk-3" target="Oml2CRXNZt8NFHJ0AKYk-9">
          <mxGeometry relative="1" as="geometry" />
        </mxCell>
        <mxCell id="Oml2CRXNZt8NFHJ0AKYk-30" style="edgeStyle=orthogonalEdgeStyle;rounded=0;orthogonalLoop=1;jettySize=auto;html=1;exitX=1;exitY=0.5;exitDx=0;exitDy=0;entryX=0;entryY=0.5;entryDx=0;entryDy=0;" edge="1" parent="1" source="Oml2CRXNZt8NFHJ0AKYk-3" target="Oml2CRXNZt8NFHJ0AKYk-16">
          <mxGeometry relative="1" as="geometry" />
        </mxCell>
        <mxCell id="Oml2CRXNZt8NFHJ0AKYk-31" style="edgeStyle=orthogonalEdgeStyle;rounded=0;orthogonalLoop=1;jettySize=auto;html=1;exitX=1;exitY=0.5;exitDx=0;exitDy=0;entryX=0;entryY=0.5;entryDx=0;entryDy=0;" edge="1" parent="1" source="Oml2CRXNZt8NFHJ0AKYk-3" target="Oml2CRXNZt8NFHJ0AKYk-17">
          <mxGeometry relative="1" as="geometry" />
        </mxCell>
        <mxCell id="Oml2CRXNZt8NFHJ0AKYk-32" style="edgeStyle=orthogonalEdgeStyle;rounded=0;orthogonalLoop=1;jettySize=auto;html=1;exitX=1;exitY=0.5;exitDx=0;exitDy=0;entryX=0;entryY=0.5;entryDx=0;entryDy=0;" edge="1" parent="1" source="Oml2CRXNZt8NFHJ0AKYk-3" target="Oml2CRXNZt8NFHJ0AKYk-18">
          <mxGeometry relative="1" as="geometry" />
        </mxCell>
        <mxCell id="Oml2CRXNZt8NFHJ0AKYk-33" style="edgeStyle=orthogonalEdgeStyle;rounded=0;orthogonalLoop=1;jettySize=auto;html=1;exitX=1;exitY=0.5;exitDx=0;exitDy=0;entryX=0;entryY=0.5;entryDx=0;entryDy=0;" edge="1" parent="1" source="Oml2CRXNZt8NFHJ0AKYk-3" target="Oml2CRXNZt8NFHJ0AKYk-26">
          <mxGeometry relative="1" as="geometry" />
        </mxCell>
        <mxCell id="Oml2CRXNZt8NFHJ0AKYk-34" style="edgeStyle=orthogonalEdgeStyle;rounded=0;orthogonalLoop=1;jettySize=auto;html=1;exitX=1;exitY=0.5;exitDx=0;exitDy=0;entryX=0;entryY=0.5;entryDx=0;entryDy=0;" edge="1" parent="1" source="Oml2CRXNZt8NFHJ0AKYk-3" target="Oml2CRXNZt8NFHJ0AKYk-27">
          <mxGeometry relative="1" as="geometry" />
        </mxCell>
        <mxCell id="Oml2CRXNZt8NFHJ0AKYk-36" style="edgeStyle=orthogonalEdgeStyle;rounded=0;orthogonalLoop=1;jettySize=auto;html=1;exitX=1;exitY=0.5;exitDx=0;exitDy=0;entryX=0;entryY=0.5;entryDx=0;entryDy=0;" edge="1" parent="1" source="Oml2CRXNZt8NFHJ0AKYk-3" target="Oml2CRXNZt8NFHJ0AKYk-28">
          <mxGeometry relative="1" as="geometry" />
        </mxCell>
        <mxCell id="Oml2CRXNZt8NFHJ0AKYk-3" value="用户" style="rounded=1;whiteSpace=wrap;html=1;fillColor=#e1d5e7;strokeColor=#9673a6;fontSize=17;" vertex="1" parent="1">
          <mxGeometry x="300" y="160" width="120" height="50" as="geometry" />
        </mxCell>
        <mxCell id="Oml2CRXNZt8NFHJ0AKYk-19" style="edgeStyle=orthogonalEdgeStyle;rounded=0;orthogonalLoop=1;jettySize=auto;html=1;exitX=1;exitY=0.5;exitDx=0;exitDy=0;entryX=0;entryY=0.5;entryDx=0;entryDy=0;" edge="1" parent="1" source="Oml2CRXNZt8NFHJ0AKYk-5" target="Oml2CRXNZt8NFHJ0AKYk-10">
          <mxGeometry relative="1" as="geometry" />
        </mxCell>
        <mxCell id="Oml2CRXNZt8NFHJ0AKYk-20" style="edgeStyle=orthogonalEdgeStyle;rounded=0;orthogonalLoop=1;jettySize=auto;html=1;exitX=1;exitY=0.5;exitDx=0;exitDy=0;entryX=0;entryY=0.5;entryDx=0;entryDy=0;" edge="1" parent="1" source="Oml2CRXNZt8NFHJ0AKYk-5" target="Oml2CRXNZt8NFHJ0AKYk-11">
          <mxGeometry relative="1" as="geometry" />
        </mxCell>
        <mxCell id="Oml2CRXNZt8NFHJ0AKYk-21" style="edgeStyle=orthogonalEdgeStyle;rounded=0;orthogonalLoop=1;jettySize=auto;html=1;exitX=1;exitY=0.5;exitDx=0;exitDy=0;entryX=0;entryY=0.5;entryDx=0;entryDy=0;" edge="1" parent="1" source="Oml2CRXNZt8NFHJ0AKYk-5" target="Oml2CRXNZt8NFHJ0AKYk-15">
          <mxGeometry relative="1" as="geometry" />
        </mxCell>
        <mxCell id="Oml2CRXNZt8NFHJ0AKYk-22" style="edgeStyle=orthogonalEdgeStyle;rounded=0;orthogonalLoop=1;jettySize=auto;html=1;exitX=1;exitY=0.5;exitDx=0;exitDy=0;entryX=0;entryY=0.5;entryDx=0;entryDy=0;" edge="1" parent="1" source="Oml2CRXNZt8NFHJ0AKYk-5" target="Oml2CRXNZt8NFHJ0AKYk-14">
          <mxGeometry relative="1" as="geometry" />
        </mxCell>
        <mxCell id="Oml2CRXNZt8NFHJ0AKYk-23" style="edgeStyle=orthogonalEdgeStyle;rounded=0;orthogonalLoop=1;jettySize=auto;html=1;exitX=1;exitY=0.5;exitDx=0;exitDy=0;entryX=0;entryY=0.5;entryDx=0;entryDy=0;" edge="1" parent="1" source="Oml2CRXNZt8NFHJ0AKYk-5" target="Oml2CRXNZt8NFHJ0AKYk-13">
          <mxGeometry relative="1" as="geometry" />
        </mxCell>
        <mxCell id="Oml2CRXNZt8NFHJ0AKYk-24" style="edgeStyle=orthogonalEdgeStyle;rounded=0;orthogonalLoop=1;jettySize=auto;html=1;exitX=1;exitY=0.5;exitDx=0;exitDy=0;entryX=0;entryY=0.5;entryDx=0;entryDy=0;" edge="1" parent="1" source="Oml2CRXNZt8NFHJ0AKYk-5" target="Oml2CRXNZt8NFHJ0AKYk-12">
          <mxGeometry relative="1" as="geometry" />
        </mxCell>
        <mxCell id="Oml2CRXNZt8NFHJ0AKYk-5" value="管理员" style="rounded=1;whiteSpace=wrap;html=1;fillColor=#e1d5e7;strokeColor=#9673a6;fontSize=17;" vertex="1" parent="1">
          <mxGeometry x="300" y="410" width="120" height="50" as="geometry" />
        </mxCell>
        <mxCell id="Oml2CRXNZt8NFHJ0AKYk-9" value="首页（可视化分析）" style="rounded=1;whiteSpace=wrap;html=1;fillColor=#cdeb8b;strokeColor=#36393d;fontSize=17;" vertex="1" parent="1">
          <mxGeometry x="470" y="50" width="170" height="30" as="geometry" />
        </mxCell>
        <mxCell id="Oml2CRXNZt8NFHJ0AKYk-10" value="首页（可视化分析）" style="rounded=1;whiteSpace=wrap;html=1;fillColor=#b0e3e6;strokeColor=#0e8088;fontSize=17;" vertex="1" parent="1">
          <mxGeometry x="470" y="330" width="170" height="30" as="geometry" />
        </mxCell>
        <mxCell id="Oml2CRXNZt8NFHJ0AKYk-11" value="用户记录管理" style="rounded=1;whiteSpace=wrap;html=1;fillColor=#b0e3e6;strokeColor=#0e8088;fontSize=17;" vertex="1" parent="1">
          <mxGeometry x="470" y="370" width="170" height="30" as="geometry" />
        </mxCell>
        <mxCell id="Oml2CRXNZt8NFHJ0AKYk-12" value="权限管理" style="rounded=1;whiteSpace=wrap;html=1;fillColor=#b0e3e6;strokeColor=#0e8088;fontSize=17;" vertex="1" parent="1">
          <mxGeometry x="470" y="410" width="170" height="30" as="geometry" />
        </mxCell>
        <mxCell id="Oml2CRXNZt8NFHJ0AKYk-13" value="用户管理" style="rounded=1;whiteSpace=wrap;html=1;fillColor=#b0e3e6;strokeColor=#0e8088;fontSize=17;" vertex="1" parent="1">
          <mxGeometry x="470" y="450" width="170" height="30" as="geometry" />
        </mxCell>
        <mxCell id="Oml2CRXNZt8NFHJ0AKYk-14" value="车辆管理" style="rounded=1;whiteSpace=wrap;html=1;fillColor=#b0e3e6;strokeColor=#0e8088;fontSize=17;" vertex="1" parent="1">
          <mxGeometry x="470" y="490" width="170" height="30" as="geometry" />
        </mxCell>
        <mxCell id="Oml2CRXNZt8NFHJ0AKYk-15" value="个人信息" style="rounded=1;whiteSpace=wrap;html=1;fillColor=#b0e3e6;strokeColor=#0e8088;fontSize=17;" vertex="1" parent="1">
          <mxGeometry x="470" y="530" width="170" height="30" as="geometry" />
        </mxCell>
        <mxCell id="Oml2CRXNZt8NFHJ0AKYk-16" value="车型库" style="rounded=1;whiteSpace=wrap;html=1;fillColor=#cdeb8b;strokeColor=#36393d;fontSize=17;" vertex="1" parent="1">
          <mxGeometry x="470" y="90" width="170" height="30" as="geometry" />
        </mxCell>
        <mxCell id="Oml2CRXNZt8NFHJ0AKYk-17" value="价格预测" style="rounded=1;whiteSpace=wrap;html=1;fillColor=#cdeb8b;strokeColor=#36393d;fontSize=17;" vertex="1" parent="1">
          <mxGeometry x="470" y="130" width="170" height="30" as="geometry" />
        </mxCell>
        <mxCell id="Oml2CRXNZt8NFHJ0AKYk-18" value="摩托推荐" style="rounded=1;whiteSpace=wrap;html=1;fillColor=#cdeb8b;strokeColor=#36393d;fontSize=17;" vertex="1" parent="1">
          <mxGeometry x="470" y="170" width="170" height="30" as="geometry" />
        </mxCell>
        <mxCell id="Oml2CRXNZt8NFHJ0AKYk-26" value="我的收藏" style="rounded=1;whiteSpace=wrap;html=1;fillColor=#cdeb8b;strokeColor=#36393d;fontSize=17;" vertex="1" parent="1">
          <mxGeometry x="470" y="210" width="170" height="30" as="geometry" />
        </mxCell>
        <mxCell id="Oml2CRXNZt8NFHJ0AKYk-27" value="我的评论" style="rounded=1;whiteSpace=wrap;html=1;fillColor=#cdeb8b;strokeColor=#36393d;fontSize=17;" vertex="1" parent="1">
          <mxGeometry x="470" y="250" width="170" height="30" as="geometry" />
        </mxCell>
        <mxCell id="Oml2CRXNZt8NFHJ0AKYk-28" value="个人信息" style="rounded=1;whiteSpace=wrap;html=1;fillColor=#cdeb8b;strokeColor=#36393d;fontSize=17;" vertex="1" parent="1">
          <mxGeometry x="470" y="290" width="170" height="30" as="geometry" />
        </mxCell>
        <mxCell id="Oml2CRXNZt8NFHJ0AKYk-37" value="" style="shape=image;verticalLabelPosition=bottom;labelBackgroundColor=default;verticalAlign=top;aspect=fixed;imageAspect=0;image=data:image/png,iVBORw0KGgoAAAANSUhEUgAAAdIAAAG2CAYAAADLBQd6AAAMQGlDQ1BJQ0MgUHJvZmlsZQAASImVVwdYU8kWnluSkEBoAQSkhN4EkRpASggtgPQi2AhJgFBCDAQVO7Ko4FpQsYANXRVR7IDYETuLYsO+oKKgrIsFu/ImBXTdV753vm/u/e8/Z/5z5ty5ZQBQO8URibJRdQByhPnimGB/+vikZDqpByBAGagDd6DL4eaJmFFR4QDa0Pnv9u4W9IZ23V6q9c/+/2oaPH4eFwAkCuJUXh43B+JDAOBVXJE4HwCilDebli+SYtiAlhgmCPEiKU6X4yopTpXjfTKfuBgWxC0AKKlwOOJ0AFSvQp5ewE2HGqr9EDsKeQIhAGp0iH1ycnJ5EKdAbA19RBBL9RmpP+ik/00zdViTw0kfxvK5yEwpQJAnyubM+D/L8b8tJ1syFMMSNpUMcUiMdM6wbrezcsOkWAXiPmFqRCTEmhB/EPBk/hCjlAxJSLzcHzXg5rFgzYAOxI48TkAYxAYQBwmzI8IVfGqaIIgNMVwh6HRBPjsOYl2IF/HzAmMVPpvFuTGKWGh9mpjFVPAXOGJZXGmsh5KseKZC/3UGn63Qx1QLM+ISIaZAbF4gSIiAWBVih7ys2DCFz9jCDFbEkI9YEiPN3xziGL4w2F+ujxWkiYNiFP6lOXlD88U2ZwjYEQp8ID8jLkReH6yFy5HlD+eCXeULmfFDOvy88eFDc+HxAwLlc8d6+ML4WIXOB1G+f4x8LE4RZUcp/HFTfnawlDeF2CWvIFYxFk/IhwtSro+nifKj4uR54oWZnNAoeT74chAOWCAA0IEEtlSQCzKBoK2voQ9eyXuCAAeIQTrgA3sFMzQiUdYjhMdYUAj+hIgP8obH+ct6+aAA8l+HWfnRHqTJegtkI7LAU4hzQBjIhtcS2SjhcLQE8AQygn9E58DGhflmwybt//f8EPudYUImXMFIhiLS1YY8iYHEAGIIMYhog+vjPrgXHg6PfrA54QzcY2ge3/0JTwnthEeEm4ROwp0pgiLxT1mOA51QP0hRi9Qfa4FbQk1X3B/3hupQGdfB9YE97gLjMHFfGNkVsixF3tKq0H/S/tsMfrgbCj+yIxkljyD7ka1/Hqlqq+o6rCKt9Y/1keeaOlxv1nDPz/FZP1SfB89hP3tii7CD2HnsNHYRO4Y1ADp2EmvEWrHjUjy8up7IVtdQtBhZPllQR/CPeEN3VlrJPMdax17HL/K+fP506TsasHJFM8SC9Ix8OhN+Efh0tpDrMIru5OjkAoD0+yJ/fb2Jln03EJ3W79yCPwDwPjk4OHj0Oxd6EoD97vDxP/Kds2bAT4cyABeOcCXiAjmHSw8E+JZQg0+aHjACZsAazscJuAEv4AcCQSiIBHEgCUyG2WfAdS4G08AsMB+UgDKwHKwG68EmsBXsBHvAAdAAjoHT4By4DK6Cm+AeXD3d4AXoB+/AZwRBSAgVoSF6iDFigdghTggD8UECkXAkBklCUpB0RIhIkFnIAqQMKUfWI1uQGmQ/cgQ5jVxE2pE7SBfSi7xGPqEYqoJqoYaoJToaZaBMNAyNQyeh6ehUtBAtRpeia9FqdDdaj55GL6M30U70BTqAAUwZ08FMMHuMgbGwSCwZS8PE2BysFKvAqrE6rAne5+tYJ9aHfcSJOA2n4/ZwBYfg8TgXn4rPwZfg6/GdeD3egl/Hu/B+/BuBSjAg2BE8CWzCeEI6YRqhhFBB2E44TDgLn6VuwjsikahDtCK6w2cxiZhJnElcQtxA3Es8RWwnPiYOkEgkPZIdyZsUSeKQ8kklpHWk3aSTpGukbtIHJWUlYyUnpSClZCWhUpFShdIupRNK15SeKX0mq5MtyJ7kSDKPPIO8jLyN3ES+Qu4mf6ZoUKwo3pQ4SiZlPmUtpY5ylnKf8kZZWdlU2UM5WlmgPE95rfI+5QvKXcofVTRVbFVYKhNVJCpLVXaonFK5o/KGSqVaUv2oydR86lJqDfUM9SH1gypN1UGVrcpTnataqVqvek31pRpZzUKNqTZZrVCtQu2g2hW1PnWyuqU6S52jPke9Uv2Ieof6gAZNY4xGpEaOxhKNXRoXNXo0SZqWmoGaPM1iza2aZzQf0zCaGY1F49IW0LbRztK6tYhaVlpsrUytMq09Wm1a/dqa2i7aCdrTtSu1j2t36mA6ljpsnWydZToHdG7pfBphOII5gj9i8Yi6EddGvNcdqeuny9ct1d2re1P3kx5dL1AvS2+FXoPeA31c31Y/Wn+a/kb9s/p9I7VGeo3kjiwdeWDkXQPUwNYgxmCmwVaDVoMBQyPDYEOR4TrDM4Z9RjpGfkaZRquMThj1GtOMfYwFxquMTxo/p2vTmfRs+lp6C73fxMAkxERissWkzeSzqZVpvGmR6V7TB2YUM4ZZmtkqs2azfnNj83Hms8xrze9akC0YFhkWayzOW7y3tLJMtFxo2WDZY6VrxbYqtKq1um9Ntfa1nmpdbX3DhmjDsMmy2WBz1Ra1dbXNsK20vWKH2rnZCew22LWPIozyGCUcVT2qw17FnmlfYF9r3+Wg4xDuUOTQ4PBytPno5NErRp8f/c3R1THbcZvjvTGaY0LHFI1pGvPaydaJ61TpdMOZ6hzkPNe50fmVi50L32Wjy21Xmus414Wuza5f3dzdxG51br3u5u4p7lXuHQwtRhRjCeOCB8HD32OuxzGPj55unvmeBzz/8rL3yvLa5dUz1mosf+y2sY+9Tb053lu8O33oPik+m306fU18Ob7Vvo/8zPx4ftv9njFtmJnM3cyX/o7+Yv/D/u9ZnqzZrFMBWEBwQGlAW6BmYHzg+sCHQaZB6UG1Qf3BrsEzg0+FEELCQlaEdLAN2Vx2Dbs/1D10dmhLmEpYbNj6sEfhtuHi8KZx6LjQcSvH3Y+wiBBGNESCSHbkysgHUVZRU6OORhOjo6Iro5/GjImZFXM+lhY7JXZX7Ls4/7hlcffireMl8c0JagkTE2oS3icGJJYndo4fPX72+MtJ+kmCpMZkUnJC8vbkgQmBE1ZP6J7oOrFk4q1JVpOmT7o4WX9y9uTjU9SmcKYcTCGkJKbsSvnCieRUcwZS2alVqf1cFncN9wXPj7eK18v35pfzn6V5p5Wn9aR7p69M783wzajI6BOwBOsFrzJDMjdlvs+KzNqRNZidmL03RyknJeeIUFOYJWzJNcqdntsushOViDqnek5dPbVfHCbenofkTcprzNeCP/KtEmvJL5KuAp+CyoIP0xKmHZyuMV04vXWG7YzFM54VBhX+NhOfyZ3ZPMtk1vxZXbOZs7fMQeakzmmeaza3eG73vOB5O+dT5mfN/73Isai86O2CxAVNxYbF84of/xL8S22Jaom4pGOh18JNi/BFgkVti50Xr1v8rZRXeqnMsayi7MsS7pJLv475de2vg0vTlrYtc1u2cTlxuXD5rRW+K3aWa5QXlj9eOW5l/Sr6qtJVb1dPWX2xwqVi0xrKGsmazrXhaxvXma9bvu7L+oz1Nyv9K/dWGVQtrnq/gbfh2ka/jXWbDDeVbfq0WbD59pbgLfXVltUVW4lbC7Y+3Zaw7fxvjN9qtutvL9v+dYdwR+fOmJ0tNe41NbsMdi2rRWsltb27J+6+uidgT2Odfd2WvTp7y/aBfZJ9z/en7L91IOxA80HGwbpDFoeqDtMOl9Yj9TPq+xsyGjobkxrbj4QeaW7yajp81OHojmMmxyqPax9fdoJyovjE4MnCkwOnRKf6Tqefftw8pfnemfFnbrREt7SdDTt74VzQuTPnmedPXvC+cOyi58UjlxiXGi67Xa5vdW09/Lvr74fb3Nrqr7hfabzqcbWpfWz7iWu+105fD7h+7gb7xuWbETfbb8Xfut0xsaPzNu92z53sO6/uFtz9fG/efcL90gfqDyoeGjys/sPmj72dbp3HuwK6Wh/FPrr3mPv4xZO8J1+6i59Sn1Y8M35W0+PUc6w3qPfq8wnPu1+IXnzuK/lT48+ql9YvD/3l91dr//j+7lfiV4Ovl7zRe7Pjrcvb5oGogYfvct59fl/6Qe/Dzo+Mj+c/JX569nnaF9KXtV9tvjZ9C/t2fzBncFDEEXNkvwIYbGhaGgCvdwBATQKABvdnlAny/Z/MEPmeVYbAf8LyPaLM3ACog//v0X3w76YDgH3b4PYL6qtNBCCKCkCcB0CdnYfb0F5Ntq+UGhHuAzbHfE3NSQX/xuR7zh/y/vkMpKou4OfzvwAVRnx5PdMpVQAAAIplWElmTU0AKgAAAAgABAEaAAUAAAABAAAAPgEbAAUAAAABAAAARgEoAAMAAAABAAIAAIdpAAQAAAABAAAATgAAAAAAAACQAAAAAQAAAJAAAAABAAOShgAHAAAAEgAAAHigAgAEAAAAAQAAAdKgAwAEAAAAAQAAAbYAAAAAQVNDSUkAAABTY3JlZW5zaG900ZzxogAAAAlwSFlzAAAWJQAAFiUBSVIk8AAAAdZpVFh0WE1MOmNvbS5hZG9iZS54bXAAAAAAADx4OnhtcG1ldGEgeG1sbnM6eD0iYWRvYmU6bnM6bWV0YS8iIHg6eG1wdGs9IlhNUCBDb3JlIDYuMC4wIj4KICAgPHJkZjpSREYgeG1sbnM6cmRmPSJodHRwOi8vd3d3LnczLm9yZy8xOTk5LzAyLzIyLXJkZi1zeW50YXgtbnMjIj4KICAgICAgPHJkZjpEZXNjcmlwdGlvbiByZGY6YWJvdXQ9IiIKICAgICAgICAgICAgeG1sbnM6ZXhpZj0iaHR0cDovL25zLmFkb2JlLmNvbS9leGlmLzEuMC8iPgogICAgICAgICA8ZXhpZjpQaXhlbFlEaW1lbnNpb24+NDM4PC9leGlmOlBpeGVsWURpbWVuc2lvbj4KICAgICAgICAgPGV4aWY6UGl4ZWxYRGltZW5zaW9uPjQ2NjwvZXhpZjpQaXhlbFhEaW1lbnNpb24+CiAgICAgICAgIDxleGlmOlVzZXJDb21tZW50PlNjcmVlbnNob3Q8L2V4aWY6VXNlckNvbW1lbnQ+CiAgICAgIDwvcmRmOkRlc2NyaXB0aW9uPgogICA8L3JkZjpSREY+CjwveDp4bXBtZXRhPgoeQOUUAAAAHGlET1QAAAACAAAAAAAAANsAAAAoAAAA2wAAANsAACXsVyR7dgAAJbhJREFUeAHsnQe4FcXZx99zz710ECxgN5pYAibGIFiiSTR+0S9YYw0iftEoKPls0SBFjZFm0FiiYEFFUcCosSYWMFjzGSvRRDSKlRgLGlCK3ILfzuVZvMKZ3Zlzds7O2f3t88A5d2Z23pnfOzv/nS3vKXwebKLZmpqaWnMaGho0JVYlr1y5UlpaWqSurk6KxWJk2ebmZlEm6+vrpVAoRJZV9lUZVTZqy6J9xUixsum/Yq98ELWZ8rexr3yvfGBjP25MZdW+6THlqv+29k2OaRv/m9q3OaZD+6Zzijo+4safjX3TY0rZddF/W/s2c4qJ/2vFvs0xFfrfdE4rBJUjpGqEl9jUoE9r0Ll0uqo7btKxsR9OZKaDTtUdN5Fl1b7pROqq/7b2TSZSG/+b2g8nMhv7cWNaHeIu7NsKiWpH3Pi36b+t/bTmtJB/WvZtjqmQv+mchpAq72o2ddBl0elqQMVNOjaDzmYiDQ/6uIkkq/ZNJ3JX/be1byNkJpOOqf1wIrOxHzem1WHuwn44pmvFflpzWsg/Lfs2x1Q4/kzGtPI/QqoR0Sw7XQ2ouIPeZtAhpOaXtk0nclf8be3bCJnJpGNqP5zIbOzHjenwmFafcSdyNvYR0tq4XWdzTIX+NxnTCKnH92hdOl3VHTfp2NhHSBFSNfGYTDoIKc+dZHJFGkyC3CNVp6glNnXQZ9HpCGl692hNhcTViYytfZsVIUJq9gClmmrSXBGnNaepfmd1Ti00NjYipMrDJbasOh0hRUjjJvJQyBHS5N9EUFNNHP/w0qIJf9tLywip+ZsgJieHrZd2g/8Q0hIiqpIQUrPXb7i0y6VdLu3G3y4J5xT1iZBW/5XG8OTQ5kTCWEiDyhFSNbJLbAgpQmpy0NmcSKgxpba4idTmoHdp32RF5MK+zYostB93319xN+VvY992RWjif5f2TcZ0Fu3bHFNh/xFSNVpLbLaDPq1B59Lpqu64ScfGfjiRmQ46VXdaQhL6Py37phO5K/629hFSLu2q4zpqC4+puDlF1aHGXxbnVF5/iRghWXU6QpqekNsKmcmkY3MiY2sfIUVIEdL4aHEIKUJakoCrFVF49prWijBt+7ZChpDGC1l4ImG6IlIDPm78hZf2TE4kwjFVK/ZNxpTL/qdl32ZOC/tvepUNIS0pI6sSWZFyj9TkoA8ncpODDiE1u0ccTmQmQhbyrxUhS1vITca0DX/bE4m07COkBK2PkHtpDRivJhOTidx00NsMunAis7EftyLIqn2EFCFFSM1fPzE5kXIxp4UnEqZzGivSCIliRcqK1OTs2eZEAiFFSBFShLSk7ITqneTZgzKUppClbd9mRRbyNz17UnXHXQazsW8jJOHZIyvS6J8mdMXfVshNjmkb/5vaD8e0jf24MR0e0+ozbvzZ2A/HdK3YNzk5dNn/tOzbHFNh/03n1EIwsHmPVB1ZJbY0hdyl01XdcQe9jX2biTScdOImsqzaNxUSV/23tW8jZCaTjqn9cCKzsR83ptUh7sJ+OKZrxX5aQhbyT8u+zTEVjj+TMa38T4jAEgIaJqmDLotOVwMq7qC3GXQIKZGN1MRjMum4ELJw/MWN6XAiV59xJ3LhRGoi5Agpv/5SCAYMK9JQOdf4REi5R2pyIhVO5EkKiasTGVMhC+2bCImL/tsIWWgfITULmm8ypm34255IpGU/HNM29k2O6dYVaVA5QrqGgIZ/IqQIqclBF07kJgedrZClbR8hjX+P1VZI1PyS5orYZEwhpCtFHdcmxzRCyu+RhucMa33anL3ZCEk46cRNJFm1j5Dy1C5CylO7a024KiGLZy+qX6xIWZGanL3bnEggpAipmlviTiSZU1etCE2uiIQn53GX9m1OzkP+rEjVaC2xmUJXuyKkCClCGn9p08WJRDiRmUykof24iTQ8ptVnmkKWtn2TMW3Dnzk1mCcDleYeqRrZJTaEFCE1mXTCidzk7JUVKStSNdWkKeQmYxoh5R5pCUn8IomzJ7NH1W0ug9gIScg/biLJqn2EFCFFSLlH+oUitfmWxbMX1T1WpKxITc7ebU4kEFKEVM0tcSeSzKncI1XjRLuFKxLT+xkmE1kWB53Niizsv8mlRVP+NvZthCS0HzeRZNU+QoqQqskxbvyHx7TJPeLwmGJOjX6P1mZOCfmbzqlENtJKPitSdYCanMggpEQ2UhOPyaRjeiIRTmQmQhKOP1MhSVvI0rZvckzb8K8VIXcqpMHA5mEjjZiqgz6tQefS6aruuElnTfuvL3xbnn/nH/Ly+/PlnY/flY+WfCzLmxuleWWLhh7JEChNYLf+35O3GxeWziQVAhoCDYWidKzvIBt0XEc27riebLPOZtK7+5bSua69lDOnacy0JocnEiYnh60LjqABCKmGaN6F9NPlS+T+lx6RB4J/bwXiyQaBJAh8Z+fvy1srPkyiKurIOYG6IKiOEtM9N9xRduy5tdQV6rRE1lwcaAsGGQhpsRjFR7gMEf/U7srPV8pdc2fJtCf/IJ+sWBLJk0wI2BJASG2JUd6EwFe69pKjt95Xvtptk5LFEdL6+pJgwsTw7MHkfgpCGi2k732yUMb+6TKZ9978EC+fEEiUAEKaKE4qa0MgCIwg+2y+ixy21felGFwKbrshpAhp2/Gw1vfwRML0er4aUKXukb6wYJ6ce/dF8mnj8rVskACBpAggpEmRpB4dga27bSqnfvMw6VzfcXURhBQhXT0YSn1JQkiffvMFOefuC6WJh4dKISYtQQIIaYIwqUpLYONO68uIHQdJ14ZOrWUQUoRUO1hURqVCOu+9V+WMW8fJipbGSDtkQiAJAghpEhSpw4TAlt02krN2OEraF9u1Ptnb+oRt8ICSuiIXtdnOqcTajaCZh6d2Fy//RIbePEI+XLIoggRZEEiOAEKaHEtqiiewS88+MrT3gQip6dkDDxsVRTGI2tZ82Oq8ey+Rx157OmoX8iCQKAGENFGcVGZAYFifg2Wn9bdrfWvDJjaA6XMnhSAqCO+RahyR9RXpM2+/KKPumqjpPckQcEOAgAxuuFKrnkCP9l1lbN+fSfHzOqsgO8ZC2tjYiJBq+GddSE+99Tz554dvanpPMgTcEEBI3XCl1mgCh37le7JXzx3dCGlwqQ8h1fDPspD+I3jAaPidEzQ9JxkC7gggpO7YUrOeQPd2nWXcjsdLsa7Iw0alMIVPWHGP1Pwe6UUPXSOzX36iFE7SIOCUAPdIneKl8ggCp/Q+VL6x7lYIaSlGCKndr7m3BO+KHnHtz2XJimWlcJIGAacEEFKneKk8gsB3e31TBgdhBE0fYDW+Rxq8pMqlXQ34rF7a/ecHr8vJvz9P02uSIeCWAELqli+16wmoX44Z33cIQloKEStSuxXp/f94WC6Zc30plKRBwDkBhNQ5YgzoCATrxst3O1W6tO+sK9GaHmoKK1INpjXfo9QUa03O6op0yhMz5bbn74vqOnkQcEYAIXWGlooNCJzzrWNkq+6lfyEm3B0h5WfUwrFQ8lOdSFz80BR5YN5jJfNJhIBrAgipa8LUH0XgtD6HyQ4bbB1VxDrsKiECI3BmdUU6/oEr5JFXn4roOVkQcEcAIXXHlprjCZy43UGy84a9IwuyImVFGjlA1Ip07P2XExYwkhKZLgkgpC7pUnccgaHbHSC7bLh9ZDFrIQ1WXTy1q0Ga1RXphFmT5fH5z2h6TTIE3BIgIINbvtQeTeCEbfaT/j0TXpESIlAPPatCesHsKxFSvdvJcUwAIXUMmOojCRy/9YDkhTRYwrIi1WDPqpCOC+6R8osvGqeT7JwAl3adI8ZABAF1aXfnXn0iStj/xjMPG0XgzKqQco80wulkOSeAkDpHjIEIAk7ukRLZSE8cIdWzIQcC5RJASMslx35JEEBINRTDJ6wIWm8WtJ4VqWYgkVwVAghpVTBjREMAIdWAQUjtQgQipJqBRHJVCCCkVcGMEQ0BhFQDBiFFSDVDg2QPCSCkHjolR01CSDXORkgRUs3QINlDAgiph07JUZMQUo2zEVKEVDM0SPaQAELqoVNy1CSEVONshBQh1QwNkj0kgJB66JQcNcmJkBLZSD+Csvr6C5GN9D4nxz0BIhu5Z4wFPQEnkY0CsSCykYZ5VoWUWLsah5NcFQIIaVUwY0RDwEmsXQIyaGgHyVkVUl5/0fucHPcEuLTrnjEW9AScXNpFSPXAEVI9G3IgUC4BhLRccuyXBAGEVEORh4142EgzNEj2kABC6qFTctQkhFTjbIQUIdUMDZI9JICQeuiUHDUJIdU4GyFFSDVDg2QPCSCkHjolR01CSDXORkgRUs3QINlDAgiph07JUZMQUo2zEVKEVDM0SPaQAELqoVNy1CSEVONshBQh1QwNkj0kgJB66JQcNcmJkLa0tBCQQTOIsvr6y/gHJ8ljrz2t6TXJEHBLgIAMbvlSezSBIdvuLzv36hNZKFycFYtmv/FcIESgnmdWhZQQgXqfk+OeAELqnjEW9ASchAhsbm7WrkiDvNbW1NfX61sV5ARBHSRY2UpdXV3rv6jCqpwqH1enqkPZLxQKos4Kojbsr+KvOCleUZviz4o0ihB5rgkgpK4JU38UAbUi7d+zd1SR1ZpmOqcWiGyk55nVFSkhAvU+J8c9Ae6RumeMBT0BJ/dIEVI9cIRUz4YcCJRLACEtlxz7JUEAIdVQDG8Mq0vLcZeB1eXi8NJy3GVQhFQDnGQIVEAAIa0AHrtWTAAh1SBESHn9RTM0SPaQAELqoVNy1CSEVONshBQh1QwNkj0kgJB66JQcNQkh1TgbIUVINUODZA8JIKQeOiVHTUJINc5GSBFSzdAg2UMCCKmHTslRkxBSjbMRUoRUMzRI9pAAQuqhU3LUJCdCGjyZqg3IoJ5aVVtDQ0Mk5iwKmepwVp/anTBrsjw+/5lIn5IJAVcECMjgiiz1mhA4YZv9YgMyhJqm3gJRb4NEba2BgwgRqEeUVSElRKDe5+S4J4CQumeMBT0BJyECA+VlRaphnlUhHffAFQSt1/icZPcEuLTrnjEW9ATUpd3Eg9YT2UgPPKtCSohAvc/JcU8AIXXPGAt6Ak7ukSKkeuAIqZ4NORAolwBCWi459kuCAEKqoRjeGCZEoNmNcVakmoFEclUIIKRVwYwRDQGEVAMGIeX1F83QINlDAgiph07JUZMQUo2zEVKEVDM0SPaQAELqoVNy1CSEVONshBQh1QwNkj0kgJB66JQcNQkh1TgbIUVINUODZA8JIKQeOiVHTXIipIEI8R6pZhBl9ald3iPVOJzkqhBASKuCGSMaAkpIE3+PlMhGGtpBclaFlMhGep+T454AkY3cM8aCnoCTyEaBWLAi1TDPqpASa1fjcJKrQgAhrQpmjGgIOIm1S0AGDe0gOatCynukep+T454Al3bdM8aCnoCTe6QIqR44QqpnQw4EyiWAkJZLjv2SIICQaijy1C5P7WqGBskeEkBIPXRKjpqEkGqcjZAipJqhQbKHBBBSD52SoyYhpBpnI6QIqWZokOwhAYTUQ6fkqEkIqcbZCClCqhkaJHtIACH10Ck5ahJCqnE2QoqQaoYGyR4SQEg9dEqOmoSQapyNkCKkmqFBsocEEFIPnZKjJjkR0paWFgIyaAZRVl9/Gf/gJHnstac1vSYZAm4JEJDBLV9qjyYwZNv9CRFYChErUrsVKSECS40i0qpFACGtFmnslCLgJEQgK9JSqFelsSLVsyEHAuUSQEjLJcd+SRBwsiIlspHeNVkVUkIE6n1OjnsC3CN1zxgLegJO7pEipHrgCKmeDTkQKJcAQlouOfZLggBCqqHIPVK7e6SsSDUDieSqEEBIq4IZIxoCCKkGDEKKkGqGBskeEkBIPXRKjpqEkGqcjZAipJqhQbKHBBBSD52SoyYhpBpnI6QIqWZokOwhAYTUQ6fkqEkIqcbZCClCqhkaJHtIACH10Ck5ahJCqnE2QoqQaoYGyR4SQEg9dEqOmuRESINXPAgRqBlEWX39ZcKsyfL4/Gc0vSYZAm4JEJDBLV9qjyZwwjb7Sf+evSMLhYuzYrEodXV1kWWbm5ul0NjYmJqQfi6fy+vvvynz3n5F3l64QD5Z9oks+Wzp6kYH77i2fi8UCqvTdF9My5qWU3ZclHVRZ9hWU04vv/eaLFy6SIeS9AQItA7ZQnAQ1tdJsaFe6tu3l0JwULKJIKSMgjQJOAkRGChv1YV03oJX5N6nH5CH/vaILF62OE2m2IZA1QgU2zVIu06dpF2XzoGoRp/lVq1RKRji0m4K0DG5moC6tLtzrz6r/y71xXpFGqyQqiakr/zrVbn0rsny1KvPlmo7aRDIBYFCXSEQ0y7ScZ2uElw3ykWf23YSIW1Lg+/VJuDkHmk1hLSppUkm/XGK3PzILRKxAK42T+xBIFUC6lJvp3V7SEOnDqm2o9rGEdJqE8deWwI1KaQfffof+cW1I+Xvb73Uti98hwAEFIHg9n/7rt2kY/durd/zAAUhzYOX/e1jzQnp+4s+kCGTTpEFH77rL1VaBgEPCLTr0kk6rdcjaEn8g3UeNLeiJiCkFeFj5woJ1JSQLl66WI69bJi89cE7FXab3SGQDwLtuwb3TdftnvnOIqSZd7HXHawZIVXPL/3iupHy6N//4jVQGgcB3wh0Wm/d4EGkTr41K9H2IKSJ4qQySwI1I6QzH71dLrzjMsvuURwCEFBP9HbdqFfw/ml9ZmEgpJl1bU10zImQJv0e6aLgvdBDxh8tS9sEVqgJujQSAp4QaOjYUTr3XM+T1iTfDIQ0eabUaE5ACWni75EmHdnoij9dIzMeu828V5SEAATWIqBWpSqAQxY3Ihtl0au10ycnkY2SjLX7WdMKOWDcEbJ8xWe1Q5WWQsBDAsX6dtKxa2cPW1Z5k/r321XeWMqT/JWTpIZyCJzcd5DsutmOkbumGtnovmdnya9vuSCygWRCAAJmBNoFT/GKQZxps9r8KbXbLnvI658u8KdBtCRXBE7rf4zs8ZWdIvucqpCOmHaePPziY5ENJBMCEDAjUB9EPKqrz97lXYTUzP+UckPAeyHd91eHEITeje+pNYcEiu3aSbFD+8z1HCHNnEtrqkNeC+n7iz6U/c8/vKaA0lgI+ExAxeJt6Jy9d0oRUp9HXfbb5rWQPjd/rgyddFr2vUAPIVAtAsH90db7pNWyVyU7CGmVQGOmJAGvhfSRF5+QM6eOLtlwEiEAgTIIIKRlQGMXCEQT8FpIZ8+dIyOn/Tq6B+RCAAJWBNp1C36zNGMbK9KMObTGuuO1kM56fo6MugkhrbExRXM9J4CQeu4gmldzBJwIaXNz8+c6EkFea1Z9TNxPFaReCenZ08foqiIdAhAog0AWhXTXnXeXN5b8qwwa7AKBygmc2m+wfGfzb0dWpDStpaVFisEDf4WYd7lVuUJSIQJnz31Yzp05LrJxZEIAAnYEEFI7XpSGQBwBFdkoTkitAzIEaqpdkQbhA1vb1NAQ/VK4MsqKNM595EPAngBCas+MPSAQRUCtSHffom9UEbEW0mAJm5iQco800jdkQsCaQBaFlIeNrIcBOyRIwMk9UoQ0QQ9RFQQSJoCQJgyU6nJPACHN/RAAQN4IIKR58zj9dU0AIXVNmPoh4BkBhNQzh9CcmieAkNa8C+kABOwIIKR2vCgNgTgCCGkcIfIhkDECCGnGHEp3UieAkKbuAhoAgeoSQEiryxtr2SeAkGbfx/QQAl8igJB+CQd/QKBiAk6ENAi6kMh7pCqy0TkzxlbcSSqAAAS+IJBFISVE4Bf+5Vv1CZyy09HJRzYiRGD1HYlFCJgSQEhNSVEOAmYEnIQIJCCDGXxKQSANAlkUUiIbpTGSsBkScHJpFyEN8fIJAf8IIKT++YQW1TYBhLS2/UfrIWBNACG1RsYOEIgkgJBG4iETAtkjgJBmz6f0KF0CCGm6/LEOgaoTQEirjhyDGSeAkGbcwXQPAmsSQEjXJMLfEKiMAEJaGT/2hkDNEUBIa85lNNhzAgip5w6ieRBImgBCmjRR6ss7ASdCunLlykQiG816fo6Mvvn8vPuI/kMgUQIIaaI4qQwCooR09y36RpIIdFFaWlqkWCxKXV1dZNnm5mYpENkokhGZEEiVQBaFlBCBqQ6p3Bt3EtmIWLu5H1cA8JgAQuqxc2haTRJwEmuXyEY1ORZodE4IZFFICRGYk8HraTed3CNFSD31Ns2CQEAAIWUYQCBZAghpsjypDQLeE0BIvXcRDawxAghpjTmM5kKgUgIIaaUE2R8CXyaAkH6ZB39BIPMEENLMu5gOVpkAQlpl4JiDQNoEENK0PYD9rBFASLPmUfoDgRgCCGkMILIhYEkAIbUERnEI1DoBhLTWPUj7fSPgREiD8EaJhAicPfdhOXv6GN+Y0R4I1DSBLAopkY1qekjWfONVQAZCBHrmxm7d1pPtt9zeeaueefkpaVyx3LmdSg1stvFXZbMNNq20Gu3+c199TpYt+1Sbn7UMhDRrHqU/aRNwEiIwCMybyIpUBa3P44q0vr5Bbhk+VbZY3514qIH32/umyPQHp6U9BiPt19e3k9tH3iSb9OgVWa7czBfefll+dumJogJK52VDSPPiafpZLQKn9huc/IqUyEaVu2+Xb+whlx/r9rL2p58tkQHnH+n1auzwH/xEfrnf0MqBlqihJRDPwy8+Qd5a8GqJ3OwmZVFICRGY3fFaCz1zco8UIU3G9b8dMlG+u13/ZCrT1HL5gzfI1Puu0+Smm9yxYxe5Z/QM6d6pm5OGTH30Nrn8jt85qdvnShFSn71D22qRAELqsdc26rW5/OHM66WhWO+slcuCe6Q/GnOkLFmyyJmNcis+6aBhcuz3Di9398j9Pvz0Izl4/NHy2fKlkeWymImQZtGr9ClNAghpmvQNbA87+Ofy0+8eZlCy/CJT5syUK++eXH4FDvZcd90N5d4RN0m74H6xi+2UG86VJ4KnwvO4IaR59Dp9dkkAIXVJN4G623foJHcGD9ts0HW9BGorXcWK5kYZMGagLFr8YekCKaSePWi0HNj3v5xYfuyVp+W0K89wUnctVIqQ1oKXaGMtEUBIa8Bb++6yn4w54kynLZ32+B/k0tsvdWrDtHL1usvtZ0yRukKd6S7G5Rqbm+Tgif8j73+wwHifrBVESLPmUfqTNgGENG0PGNgvBIIy5dTJssPm2xmULq9IU0uz7DfuKPno4/fKqyDBvS4ZepHsvu1OCdb4RVWX3n+dTHvghi8ScvgNIc2h0+myUwIIqVO8yVX+ta/0lhknT5JCoZBcpWvU9Psn75Xf3DJxjdTq/vmt7frJlCEXOjH61sIFcsQFP5Xm4FJ2njeENM/ep+8uCDgR0qampkQCMqgQgefMGOui3zVZ5+hBo+Sgvj901nb1XuUBFxyd2mVPtfKeevrV0mfTrZ308firzpTng2hOed+yKKSECMz7qE63/ypE4Hc2/3ZkI1TQlyBYkRSLRamri75tFYTZlUJjY2NiQnruzHGRjctTZteu68o9wYNHXTp0dtbtO599UMbclM7Jyw/67SMXDBzppG/3PDdbzpt2vpO6a61ShLTWPEZ7fSfgJEQgARncuf3IvQfKGQOGODOw8vOV8uOJx8mCf7/uzEapil2GAlzy2VI5cMJgWbx4YSnTuUvLopAS2Sh3w9irDju5tIuQuvNxsdggM4dfL1tusJkzI/f9LfjVnannOqu/VMWH7XWkDN//xFJZFaedd/vFcs/jd1ZcT1YqQEiz4kn64QsBhNQXT1i0Y6c+u8mVPxtvsYdd0eBEKIhBO0TeeOcVux3LLO0yFOCLQR+Ou2RoroLSx7kBIY0jRD4E7AggpHa8vCl94QkXyPe/vouz9sx56S9y5jUjnNXftuITDzxJjvv+EW2TEvmuLlP/5NJhMv+tlxKpLyuVIKRZ8ST98IUAQuqLJyzb0XP9TeTO4Tc4C6GnmnPU7/5XXnn9BcuW2RV3GQrQpyATdlTclkZI3fKl9vwRQEhr2OeuVnIhkif++aycMvn08E8nn65e6Vn46cdy0PhBuQxKH+cohDSOEPkQsCOAkNrx8qp0u/YdW+Pw9uy2vrN2Db7iFHnptblO6ncZCvD0ab+WR597yEm7a71ShLTWPUj7fSOAkPrmEcv27N3/v2XCT86y3Mu8+LNv/F2GXDbMfAeLkhcPvVD22LafxR5mRf8aCP/PJ50q6qEptrUJIKRrMyEFApUQcCKkQQQH7QwWRD1qbW9DQ0Nku1UUiFnPz5HRN/MSfRSo1ji8p0ySHbb4elSxivJcRATaIYile20QUzfpramlKXgP9lj59/tvJ111ZupDSDPjSjriCQElpLtv0TeyNUQ2isSTfuaWm20rt5x2pZNfS1G9U6+QHBu8DpPUCk+J//WnXSXbb7ZN4vAuf3CqTL3v+sTrzVKFWRRSQgRmaYTWXl+cRDYi1m71B8LIgSPkx/32dWZ42HWj5K8vPp5I/Xvt9EP5zVGjEqmrbSUL/vOeHDbhGGlq/KxtMt/XIICQrgGEPyFQIQEnsXaJbFShV8rYvWvXHnJ3EIe3a4cuZewdv8s///2GHBVcMv08eDezkk2FArxt5DTZtMeGlVRTct8Trh4uz817smQeiV8QyKKQEiLwC//yrfoEnNwjRUir70hl0WWYPVX/aTeeJ489/2f1tezt0L2OkLP2P6ns/XU7/mnuHDnnhl/psklvQwAhbQODrxBIgABCmgBEX6pQcXhn/PI62arn5k6a9Gbwe56Hjx8chNtrKav+Dh07y72jZ0r3Tt3K2l+309IVy+SA8UcTlF4HaI10hHQNIPwJgQoJIKQVAvRtd1dPw4b9PGvGBJn91H3hn1afQw4YKsfv+ROrfUwKj73jMrnj0dtNilImIICQMgwgkCwBhDRZnl7UNvH4CbJn712dtEU90HPI2EHBD9Sueo3J1Ej3dTaQe0fdLB0a2pvuYlTu5Xdfl8G/PV5WtjQblacQQsoYgEDSBBDSpIl6UN8G628sdw2/0Vkc3nNuvUj+9Je7rXo66qiRcvBO+1jtE1dYBaUfGASLeO1NgtLHsWqbz4q0LQ2+Q6ByAghp5Qy9rOGE/YfICXsNdNK2Dz5ZKAeOGShNTSuM6ncVCnB6IOa/DUSdzY4AQmrHi9IQiCOAkMYRqtF8FYf3juB1mF6O4vCOvfN3cscjtxnRcREK8D9LFwdB6Y+WpcEnmx0BhNSOF6UhEEfAiZA2NzcnEiJw9tyH5ezpY+L6QL6GwA/67SMXDBypya0s+eOli2S/84+UxhXLIyvq/bVvyY3DLo0sU07mL28eK39+5sFyds39PlkUUiIb5X5YpwpABWQgRGCqLnBnvFAoyOSfXyY7bfVNJ0Yu/ONVMnP2dG3drkIBPj3/b3JS8Ks0SYUs1HYgoxkIaUYdS7dSI+AkRGBLS0siK1IVtJ4VaWVjY4tNt5ZbT7/aSRzeT5YvkQHnHyHLg89S2559fygTByUbCnBVUPrjgqD0b5UySZoBAYTUABJFIGBB4NR+g5NfkRLZyMIDVSg6/MhfymE7D3Bi6bIHrpcb75+6Vt0qOMStI26UzdfbeK28ShImz75Jrv3jNZVUkft9syikhAjM/bBOFYCTe6QIaao+Xct4ly7d5Z7gHU4XcXiXBfdIfzTmSFmyZNGX7B66ZxAK8IBkQwH+6z/vy6ETBhOU/kuk7f9ASO2ZsQcEogggpFF0MpR3yJ6Hy4gD3PxA99V/ni5X33PValoqFOA9o2ZIj87rrE5L4svQKWfJM//4vySqynUdCGmu3U/nHRBASB1A9bHKurqiTDvjWtl2oy0Tb95nwfukA8YOXB3rdsj+QSjAvZINBfjAC4/KqOvPTrzteawQIc2j1+mzSwIIqUu6ntX9jW2+LdefeLGTVk199Da5/I7fyTrrrC9/HDU90VCAy4PfFz3wgmPk44/fc9L2vFWKkObN4/TXNQGE1DVhz+qfcNxY2Xv73RNvlXqadsC4QTJ0358m/gPjE+6eJLfNuSXxNue1QoQ0r56n364IIKSuyHpa7/rrbSR3nzXNSRzev7z6rOzytR0TfdWGoPTJDySENHmm1JhvAghpDv1/3IDj5cS9B3nfcxVwYXAQeGFeEICBLTkCCGlyLKkJAoqAEyFtbGzUBmQIwge2kq+vr4/0wMqVK+Whvz0i58wYG1mOTHsCDe06yG1n3Sib9Ohlv3MV9/j9k/fKb26ZWEWL+TCVRSElRGA+xq6vvVQhAnfbbMfI5ilNU//q6upa/0UVDoIaSSFKSJuaVv2OZUNDQ1Q9rQZVrN1zZ46LLEdmeQS+9+295aKj/X0KdtGyT4Kg9IOC91MJSl+eh/V7IaR6NuRAoBwCTkIEEpChHFdUdx8Vh/eKIJh8/6/uUF3DhtbOmjFBZj91n2FpitkQyKKQEtnIZgRQNmkCTi7tIqRJu8lNfVts8jX5/enXSDG41ODT9szrL8iJl59MUHpHTkFIHYGl2twSQEhz6/pVHT/j8DPkyF3394ZC88oWOeyi4+Wdd+d706asNQQhzZpH6U/aBBDStD2Qsv1OnbvJXSNuSjycX7nduubPM+Sqe64sd3f2MyCAkBpAoggELAggpBawslr0oD0OkdE/Pjn17r27SAWlPyb2x8JTb2iNNwAhrXEH0nzvCCCk3rmk+g1ScXhv/MUU2W7jrapvvI3Fk64dKU/9/Yk2KXx1QQAhdUGVOvNMACHNs/fb9L1PEJHohmGXtEmp7teH5z0pZ1w9vLpGc2oNIc2p4+m2MwIIqTO0tVfx2J+eL/t887tVb7j69ZgDg98Z/Yig9FVhj5BWBTNGckTAiZAG0Ru0kY1sAjLMen6OjL75/By5I92u9ujRszUOb8cg8lE1t4n3XiW3PDS9miZzbQshzbX76bwDAkpId9+ib2TNKqqRilhULBZjIxupCID/DwAA//93v8GoAAAmAUlEQVTtnQmcFMX1x9/sgZA/kkTzN4kmGo3iFWOMt5iAYP4mRmPUeJ+IB6CiHMqpIqICHlGMt4giIkYlaiQqoBgNGo8InqDigaLIocDusrCzM8u/32AbWKe6q2b6TVdX//rz0WWqq+tVfd/r+nV1T7/JZLPZtaTYmpubC3tqa2sVNdYVt7S00Iw5z9Alk68IrIed0RI445Az6axuJ0TbaEBr733+EZ149emUz6+Li4Cq2BURgTYdNo6oJXua2Xfv/enDhk/t6RB6kioCfXY/kTpt+cvAMbOm5fN5qq6upqqqqsC6uVyOMp5YKoWUK/BWU1MT2NDatWsLQnrRpJGB9bAzOgKZTBXdfM71tMc2P4+u0ZCWPlz6CR03pjvlchDSEFSR7c59sCaytmxpaP8/HUgfN0JIbfFH2vrRt/MZ9Ktt9w4cNmuaL6SZTCawLtfLeAcohdRkRTp99kwaOnFEoEHsjI7Awfv9gUYc1T+6BjVb+vPj4+jeaRM0a6NauQTq3l5ebhPWHX/gCQfT/PqPresXOpQOAoMPPJsO2L5T4GCNV6QQ0kCeVu7s0GFTenjQBOrQrn3F+5f1VqNHXn0aLVqMibAS8CGklaAMG2kiACFNk7cDxnp598vooJ//OqCG7K4X58+hc246nwJuZsh2IEWtQ0hT5GwMtSIEIKQVwWy3kd132oduPWN07J0cOOlKeurlJ2Lvh+sdgJC67mGMr9IEIKSVJm6ZvY3afoseHHQ3/fDbm8XesxWNdfTHK0+ihoYVsffF5Q5ASF32LsYWBwEIaRzULbLZ90/96IROh1nToyneivQKb2WKTY4AhFSOLVpOJwEIaTr9Xhj1T7faie4770aq8l57sWnrfnNfeuPdV23qklN9gZA65U4MxgICEFILnBBHF6qra2nigDtoux/8JA7zgTYXLFtIx445jZqbmwLrYWdpBCCkpXHDUSCgIiAipF7ShUjeI+XMRkjIoHJdeeUn//ZU6nNQ9/IaETz6xukTaPw/xglaSG/TLgppt+N/R+83fJJep2LksRIY2LUXdem4X2AfjN8jRYrAQJ6x7/z+Zj+iKReMp41q2sTeF1UHci15OuqaM+iTz95XVUF5iQQgpCWCw2EgoCBw4QE9qfN2+yr2ris2FlIvvVEkK1LObIQVaaBvjHdKpQGc++l82nGLbY37E3TAKx+8Qb3+0sd7t7QlqBr2GRKAkBoCQ3UQCCEwqFvv6FekyGwUQj3G3RJpABd+uYiOvboHPTDwrshfoxl2/1X0xL8fi5GYe6ZdFFKkCHQvTpM0IpFnpBBSO0NAKg1gv3tG0LOvPkUSIl2/poEOu/Jkqqv7wk6oCewVhDSBTkOXrSYAIbXaPdF2TiIN4DzvGeZJ3s+g8e3XqqpqmnTheNr2+1tF2vHHZj9FwyeMiLTNNDcGIU2z9zF2CQIQUgmqFrYplQbw9FsH0Jx5L3894v127UxjT41e9HreMYheeeuFr+3gH6UTgJCWzg5HgkAxAhDSYlQcK5NKA/jS+69Rb+/LQOtv/Dt7t/W5kXb7yc7rF5f970+XL6ajRp9C2abVZbeV9gYgpGmPAIw/agIQ0qiJWtieVBrAY6/vRfM/evsbI97xp7vSPeeM/UZ5uQW3P30f3fr3W8ptJvXHQ0hTHwIAEDEBCGnEQG1rTioN4JOvP0tDx1+kHO61Z11Fv95hL+X+Unbwu6XHXHsmLfBetcFWOgEIaenscCQIFCMAIS1GxZEyqTSA+ZYW+uOYU70f4l6gJPWjH27jJX0YF3ke39c+nkdneCthfrkZW2kEIKSlccNRIKAiICKkyGykwl3Zcqk0gH/13usc473fGbZddOIwOmz334RVM94/4qHr6NF//c34OBywjoCLQooUgYjuOAmIZDaCkMbp0nW2pdIANuWydMjlJ9DyFUtCB7nJJj+gxwZPpDY1taF1TSqsamosvFu6YuVSk8NQ9ysCEFKEAghES0BESJGQIVonmbYmlQaQ+2H6hZ9zj+hDp/zqSNMhhNYPe0Yb2kCKK7gopMhslOKAtmDoIrd2IaTxelYiwxCPqG51g7caPY4aV9VpD7B9+2/TY0Pvo/Zt/0f7GN2KvccNoZfenKVbHfW+IgAhRSiAQLQEIKTR8oy9Nak0gDywq6feSpNnTDIeo9Sz2iV1y+gIL33gmjWrjPuU5gMgpGn2PsYuQQBCKkE1xjYl0gDycFi0DvOejTZn1xiPrs1G7ejRoZPoextvYnxs2AF3Pfsg/eVvN4RVw/71CEBI14OBf4JABAQgpBFAtKUJqTSAPL6L/no1Pf7C30se6h/2P5wuPvL8ko9XHdji5fg9fuzZRRNDqI5JezmENO0RgPFHTQBCGjXRmNqTSgPIw/lo2UI6etQp1JLPlTy6quoaenDwBNpy0y1KbkN1ICfOP9lL1FBO/1Rtu1gOIXXRqxhTnAQgpHHSj9C2VBpA7mKfuy6m51/7Z9m9/fUvu9G1J11cdjvFGhj16E304Mz7i+1CWSsCENJWQPARBMokACEtE6ANh0ulAeSxve5lEupxXU/vZ9LWlj1UTmg/vu9t9LMfdyy7rdYNrPae3R7uZVta9sWi1rvwuRUBCGkrIPgIAmUSEBFSL32bctZtbm4udLm2NvglfU4BN332TBp272VlDtHtw6XSAPrUut/cl95491X/Y9l/d91+DxrX85qy2ynWwD/nvkj9b7uw2C6UrUcAQroeDPwTBCIgwELapeN+gS2xpuXzeaqurvZ+u7kqsG4ul6MMMhsFMop0p9SrJdzJ5955mfreMiDS/nJj1/e6ljp13D3ydrnB8+6+hGbNeUakbVcadVFIkSLQlehM5jhEMht5ahrJinSGNyFeNGlkMslWoNdSaQC563wr95jretEHH8+NfCRb/3h7+mvfW4lv9Ua9La3/ovBu6WoveQS24gQgpMW5oBQESiUwsGuv6FekyGxUqjv0j5NMA8i9mDr7abpkwqX6HTKsOeKU4XTwLw4wPEqv+r2zHqE/P3itXuUU1nJRSJEiMIWBbNGQRZ6RQkjlPSyVBpB7zr/7+cfRp9DnSz4RG8hm39uCHhk0gWq912Ki3vjd0hNvOJfe/fDNqJt2oj0IqRNuxCAsIgAhtcgZul2RTAPIfajUik7ylZ13F31IJ11zhvdwf92X23TZpqEehDQNXsYYK0kAQlpJ2hHZkkoDyN1b09xU+Jm0SvxEGV8QTB16L7Vr0y4iMhs2c/XU27zcwPduWIhPBCFFEIBAtAQgpNHyFG9NMg0gd/6mGffQnVPvEB+Hb+C0359OvQ88yf8Y6d9srpkOv+pUWrxkYaTtJr0xCGnSPYj+20YAQmqbRwL6I5kGkM2uXF1Ph1x2LFXyG6+c0P7vw+6jTdt/N2Dkpe/69/zZdO5NfSNJKFF6L+w6EkJqlz/Qm+QTgJAmyIeSzxQZQ1xp9o7ochQNOewcMU9cMPFymvmfaWLtJ61hCGnSPIb+2k4AQmq7h77qn2QaQDbx+cqldPgVJ5b0M2nlIuTsTA8UEtpvXm5TRY9fvmolHT7qJGpoWFl0f9oKIaRp8zjGK01AREiRkCFat0mnAeTeDrpvFM146fFoO27QWrc9D6LRxw8xOMKs6oMvTqVRk8eYHeRobReFFJmNHA3WhAxLJCEDUgRG633JNIDc0w+WfEzHjj6VWrz3R+PaOMHE3f1up51+tK1IFzhTE+cNfvO92SLtJ6lRCGmSvIW+JoGASIpALzGvMkUgJ+PlraYm+EV8nviQtJ5IMg2gH6C9xw2hl96c5X+M7a/0N5L5d1WPHd2dcrlsbGO0wbCLQorMRjZEVnr7wLd2O2+3byAA1jQ/aX1YelSul0Fmo0Ce2jul0wByR15bMJdOv76XNd9qvaH3n2nf7X6pzci04g1P3kV3PzHe9DCn6kNInXInBmMBAZFnpBDSaDwrmQbQ7+HJN55Hb8+f43+M/e82W+5A959/i0hCex5cs5fp6IiretCixQtiH2tcHYCQxkUedl0lACG11LPSaQB52DPffoEuuH2QdQSuOG0k/d8uvxLr18vvv0a9vQsIvtWSxg1CmkavY8ySBCCkknTLaFsyDSB3ixO7H+Xlol3w6fwyeilzKD8XfmTgBKqpqpYx4LU6ePJomv7iP8Tat7lhCKnN3kHfkkgAQmqh16S/dMNDfthLUDDSS1Rg63bhMRfQ0fscIta9FY113rulJ1N9/XIxG7Y2DCG11TPoV1IJQEgt85x0GkAebnM+R4deeSIt+2KRZaP/b3fWJbSf5CW0b/vfwoj/9ch/ptNlE0dG3Kr9zUFI7fcRepgsAhBSy/wlnQaQh3v3cw/RDVPGWjbyb3bnrEN70hldj/vmjghLzrxtIL06998Rtmh/UxBS+32EHiaLAITUIn9JpwHkoTY2rabfX35cIm5ptm33P/TYsMn0nW91EPPSwi8X0VFeMorm7BoxG7Y1DCG1zSPoT9IJiAgpMhuZh0Ul0gByr8Y+OZ4mPHGXeQdjOuLobsfRhYf0FLV+y1MT6Y7Hbhe1YVPjLgopUgTaFGHp64tIZiMIqXkgbbzxJrTLNruYH2h4xCvzXqKstypNylZbuxHtudM+ot3Nec+MX37r+dS8DgMhFQ0nNJ5CAiJCioQMKYwkDDkxBFwUUqQITEz4OdlRkVu7EFInYwWDcoQAhNQRR2IY1hCAkFrjCnQEBCpDAEJaGc6wkh4CENL0+BojBYECAQgpAgEEoiUAIY2WJ1oDAesJQEitdxE6mDACENKEOQzdBYFyCUBIyyWI40FgQwIQ0g154BMIOE8AQuq8izHAChOAkFYYOMyBQNwEIKRxewD2XSMgIqT5fF75Q4+5XK7AsKamJpAl/1bk9Nkzadi9lwXWw04QAAEzAhBSM16oDQJhBFhIO2+3b2A11jRPG6m6upoymUxgXa6XQWajQEbYCQKxEnBRSJEiMNaQSr1xkcxG3qpTuSJtbm4uQK+trQ2E39LSQjPmPEMXTUrfz1wFgsFOECiTAIS0TIA4HARaERjYtRd16bhfq9INP7Km+SvSqqqqDXe2+sR3bjPIbNSKCj6CgEUEXBRSpAi0KMBS2BWRZ6QQ0hRGEoacGAIQ0sS4Ch1NCAEIaUIchW6CQFQEIKRRkUQ7ILCOAIQUkQACKSMAIU2ZwzFccQIQUnHEMAACdhGAkNrlD/Qm+QQgpMn3IUYAAkYEIKRGuFAZBEIJQEhDEaECCLhFAELqlj8xmvgJQEjj9wF6AAIVJQAhrShuGEsBAREhRUKGFEQOhphYAi4KKTIbJTYcnei4SEIGpAh0IjYwCEcJQEgddSyGFRsBkRSBXiqkSFIEIml9bHEBww4TcFFIkdnI4YBNwND41i5SBCbAUegiCERFAEIaFUm0AwLrCIg8I0WKQIQXCNhLAEJqr2/Qs2QSgJAm02/oNQiUTABCWjI6HAgCRQlASItiQSEIuEsAQuqubzGyeAhASOPhDqsgEBsBCGls6GHYUQIQUkcdi2GBgIoAhFRFBuUgUBoBCGlp3HAUCCSWAIQ0sa5Dxy0lACG11DHoFghIEYCQSpFFu2klICKkyGyU1nDCuJNAwEUhRYrAJESeu30UyWwEIXU3YDCy5BOAkCbfhxiBXQREhBQJGexyMnoDAusTcFFIkSJwfQ/j35UmIHJrF0JaaTfCHgjoE4CQ6rNCTRDQIWC1kM6YM5OG3DNCZxyoAwIgoEkAQqoJCtVAQJOA1UL6zzdm0QV3DdMcCqqBAAiEEVjbQlQ/b3lYtcTtx63dxLnMqQ5bLaSvvj+Het7U1yngGAwIxEmgpbmFGt5bGWcXRGxDSEWwolFNAlYL6eLlS+jQkcdoDgXVQAAEwgjkVjVT44KGsGqJ2w8hTZzLnOqw1UKaz+fpt8OPpJWN7l1BOxVFGExiCDQtb6KmRY2J6a9uRyGkuqRQT4KA9UI6ZOIImvn6sxJjR5sgkDoCjQsbKFfX7Ny4IaTOuTRRAxIRUm8luVZFobl53UlcW1urqlIob2lpIV6RPjn7KRpx/+jAutgJAiCgQWDtWqp7x7u706I8PTUasbMKMhvZ6Ze09GpQt97UpeN+gcP1Na26upqqqqoC6+ZyOcpEldmIhXRNcxMddsVxtDq7OtAwdoIACAQTyK7M0ppPVwVXSuheCGlCHedIt0UyG3lqqrzkNV2RsnLf9PgdNPGZ+x1BjmGAQDwEtqzegjZqaVMwnslkQjvhJVYh3XrcmG5dnXrcnon9H++6NWVr83xY4KbbJjeiW5fr8aYzLqk2YT9e/kfudjB12n6vQhyo/me8IvWCJVIhXdFYR0dcfgKtanLzaloFHuUgEBWB5npvNbrQ3fNn/07709xP3okKF9oBASMCl54+lH6zV9fAY2IXUr6nfP9zU+iqKdcHdhQ7QQAEvkmAkzCs+mAlrfXeIXV1g5C66tlkjCsxQsqL3P7jhtKzb81KBln0EgQsIdD42SrKe89HXd4gpC571/6xJUZIGWWdd4u3x9hz6cPFH9lPFj0EAQsINH25hrKL3f+iHoTUgmBLcRcSJaTsp8UrlhTSBn6ydGGK3Yahg0A4Af6WbpO3Gk3DBiFNg5ftHWPihJRRftmwggbcOYRe//Ate8miZyAQI4GmL1ZTdsmaGHtQWdMQ0sryhrUNCSRSSHkIuXyObn58HE18ejLl+dsU2EAABIiT0q/+vJFaGtzLXhTkXghpEB3skyaQWCH1wby36H0a++gt9MK8l/wi/AWB1BFY62Uryq5oouxSbxXqYOaiMIdCSMMIYb8kAREh9ZIuKN8j5dRHvNXU1ASOi7+ly5mNOCFDWDolrvfuZ/Np6n+m0dNeXt4v678MbBs7QcAVAvk1OcrWZSm3wvtWrjozpyvDVY6j036daN7Cd5X7sQMEJAlcctpg6rZHl0ATvqbx65xhyTtY0yJNEcgiyoaDNhZn7qQvzh8uWUBvfzyPPln2qffLMXVUv7r+68O5Hm9hA+E6unV165m0aVJX0r4upznvvE5Lli3lbmMTIlAIXe9/fPu2JZunlkYv7tVJxIR6YWezEFI7/ZKWXl3cfVCokBonZPAOUK5IS0kRaCKkYRM/2+c6vuiqHO0P2lTIbbbPgltIhmwwfmYfdkeA2+w3aiBNmzVDhRPlICBKALd2RfGi8RACfGv3wD0PCKzla4runJrxJmwIqQJpnEIuKaR9r7wQQqrwOYrlCUBI5RnDgpqAyDNSCKkaOIRUzQZ7QKBUAhDSUsnhuCgIQEgVFP1lOG7t6t3axYpUEUgorggBCGlFMMOIggCEVAEGQrruh9V17+dDSBWBhOKKEICQVgQzjCgIQEgVYCCkEFJFaKDYQgIQUgudkqIuQUgVzoaQQkgVoYFiCwlASC10Soq6BCFVOBtCCiFVhAaKLSQAIbXQKSnqEoRU4WwIKYRUERootpAAhNRCp6SoSyJCms1m8R6pIohcff3lgquG0PTnn1KMGsUgIEsAmY1k+aL1YAIimY2ChFQ31y6vCPk/zhQUltmI8xJysgGuF5ZZyM/sE9ami/aZUSGHowZTf/z8+k9YZiNuc8CYwRDS4HMNewUJQEgF4aLpUAKca7fr7p0D65nOqchsFIDT1RUpXn8JcDp2iRPArV1xxDAQQEDk1i4yG6mJQ0jVbLAHBEolACEtlRyOi4IAhFRBkZfhfMsSmY2Q2UgRIii2iACE1CJnpLArEFKF0yGk+NauIjRQbCEBCKmFTklRlyCkCmdDSCGkitBAsYUEIKQWOiVFXYKQKpwNIYWQKkIDxRYSgJBa6JQUdQlCqnA2hBRCqggNFFtIAEJqoVNS1CUIqcLZEFIIqSI0UGwhAQiphU5JUZdEhNT7tisyGymCyNXXX/qPHkTTZs1QjBrFICBLAAkZZPmi9WACw3sMoQP3PCCwkr840/1pykxQZiMWEt5qa2u1jLr0+gkP2FUhRYrAwHDGTmECEFJhwGg+kIBIikAvDR9WpArsrgopr0iRa1fhdBSLE4CQiiOGgQACnCIw8hUpMhupibsqpEgRqPY59sgTwDNSecawoCYg8owUQqoGDiFVs8EeECiVAIS0VHI4LgoCEFIFRf/BsEvPaPnXX/xfv6mpqVGMfF2xP37dB+NYkQbixE5hAhBSYcBoPpAAhFSBxxcSCCly7SpCBMUWEYCQWuSMFHYFQqpwOoQU75EqQgPFFhKAkFrolBR1CUKqcDaEFEKqCA0UW0gAQmqhU1LUJQipwtkQUgipIjRQbCEBCKmFTklRlyCkCmdDSCGkitBAsYUEIKQWOiVFXRIRUu8VDyRkUASRq6+/DBgzGAkZFD5HsTwBJGSQZwwLagKckKHbHl3UFbw9/uJM900IpAgMwOmqkCJFYIDTsUucAIRUHDEMBBAQSRHoKS9WpArorgppv1EDkbRe4XMUyxPArV15xrCgJsC3dpEisAgffxmO90jxHmmR8ECRZQQgpJY5JGXdEXlGihSB6ihydUWKzEZqn2OPPAEIqTxjWFATgJAq2GBFim/tKkIDxRYSgJBa6JQUdQlCqnA2hBRCqggNFFtIAEJqoVNS1CUIqcLZEFIIqSI0UGwhAQiphU5JUZcgpApnQ0ghpIrQQLGFBCCkFjolRV2CkCqcDSGFkCpCA8UWEoCQWuiUFHUJQqpwNoQUQqoIDRRbSABCaqFTUtQlESHNZrNIyKAIIldff0FmI4XDUVwRAshsVBHMMKIgIJLZyBMLCKkCuKtCily7CoejuCIEIKQVwQwjCgIiuXaRkEFB2yt2VUiRkEHtc+yRJ4Bbu/KMYUFNQOTWLoRUDRxCqmaDPSBQKgEIaankcFwUBCCkCor4shG+bKQIDRRbSABCaqFTUtQlCKnC2RBSCKkiNFBsIQEIqYVOSVGXIKQKZ0NIIaSK0ECxhQQgpBY6JUVdgpAqnA0hhZAqQgPFFhKAkFrolBR1CUKqcDaEFEKqCA0UW0gAQmqhU1LUJQipwtkQUgipIjRQbCEBCKmFTklRl0SENJ/PIyGDIohcff2l/+hBNG3WDMWoUQwCsgSQkEGWL1oPJjC8xxA6cM8DAiv5i7Pq6mqqqqoKrJvL5SiDFIFqRq4KKVIEqn2OPfIEIKTyjGFBTUAkRaCnpliRKpi7KqS8Ip3+/FOKUaMYBGQJQEhl+aL1YAKcIjDyFSkyG6mhuyqkSBGo9jn2yBPAM1J5xrCgJiDyjBRCqgYOIVWzwR4QKJUAhLRUcjguCgIQUgVF/8EwPxTmh8NBGz8Y9i4eqKamhjKZTFBVJK0PpIOdIFAaAQhpadxwVDQEIKQKjhBSvP6iCA0UW0gAQmqhU1LUJQipwtkQUgipIjRQbCEBCKmFTklRlyCkCmdDSCGkitBAsYUEIKQWOiVFXYKQKpwNIYWQKkIDxRYSgJBa6JQUdQlCqnA2hBRCqggNFFtIAEJqoVNS1CURIfVe8UBCBkUQufr6y4Axg5GQQeFzFMsTQEIGecawoCbACRm67dFFXcHb4y/OkCJQgQmvv+QIKQIVwYHiihCAkFYEM4woCIikCPSUFytSBXBXV6T9Rg1E0nqFz1EsTwC3duUZw4KaAN/aRYrAInz8ZTgSMuj9UgFSBBYJIhRVjACEtGKoYagIAZFnpEgRWIT0V0Wurkj7jxpET/xrmnrg2AMCggQgpIJw0XQogZFnXkRdo35GCiFVc3dVSIdddyn9bcYj6oFjDwgIEoCQCsJF06EEru1zJe3zs70C6/l3ObW/bAQhVfN0VUivGX893fnQ3eqBYw8ICBKAkArCRdOhBO4YfCPttPUOgfUgpEhaHxgg/K3lB56cQsNvGBlYDztBQIoAhFSKLNoNI8A/VPL4NVOoQ/sOgVUhpBDSwABhIX3zvbfpmL4nBtbDThCQIgAhlSKLdsMIbP69LWjyiDsLv/4VVBdCCiENig9iIc3lc7T/8V2pflVDYF3sBAEJAhBSCapoU4fAoZ0OpgtOOA9CWgyWf/WA11/0Xn/h32Mddv2l9PCMR4vhRBkIiBKAkIriReMBBK46+3Lae+c9ohfSbDaLhAwK8K5+2YiFdPa81+m0IWcqRo5iEJAjgMxGcmzRsprAph02oUnDx1ONd9eypqZGXdHb4y/OtL+164kFhFSB1GUh5UDi56RvzZ+rGD2KQUCGAIRUhitaDSZw9hFn0hGd/0D8haPIhRSvv6jhuy6ks159gXoM7akGgD0gIEAAt3YFoKLJQAKbfXczuo+/ZFRVAyFVkfKX4XhGqv+MlK/I+Mrs3JH9aNq/ZqjQohwEIicAIY0cKRoMIXBFz+HUebf9C1+2xIpUAQtCavZ7pPyM1BfSlfUr6bDeR9OipYsUdFEMAtESgJBGyxOtBRP4faff0dBTBhDPe/zWAoRUwQtCWrqQMtLX3nmDThnYg1avWaMgjGIQiI4AhDQ6lmgpmMDOW+9IN/S/mtq2aQsh1X0wjFu75rd2/TB87pVZ1PvS8ynb3OQX4S8IiBCAkIpgRaOtCGy9+U/oxgHX0nfaf7uwBytSza8qQ0hLF1KOtFfefJV6XdqH6urrWoUkPoJAdAQgpNGxREvFCfyi4640uveltPG3Nv66AoQUQvp1MBT7h39rW/edp/WfkbZu77Mli6jfqAtp9tuvtd6FzyAQCQEIaSQY0UgRAhmqohMOOobOOrw7VVdVb1ADQgoh3SAgWn+IUki57Za1LTR56gM0dsJNtLxueWtz+AwCZRGAkJaFDwcrCOy8zY7U/7g+tMNWHYvWEBXSfD6PhAxFsRO5/h4pf3tNtXHQ1TfU05QZD9ND0x6h+QveV1VFOQgYEUBCBiNcqBxAIJOpor132qOQaGHfXfYqfCNXVV1USJEiUIUdQrr+V8XfWzCfXpjzIs2Z+zot+OwjWrRsCTWuXuV9nTyvBog9IFCEAIS0CBQUhRJou1FbatemHW3xv5vT1j/cin7RcRfaffvdaON27QvfyPVf6VM1JCqk3mSpXJHyRMpb2LdmuYPeypb4yz78X9DG9bh+WJvchj+R87O/oA321/FnTkGrTGYowZ9vLfN/sB/OX/ecYl/pxr8Jf1P7Oue0hH2Tc9q3rzunMNuwuib2Tc+puO3zHIE5VU9TdOe0jBcwSiHlW5u81dbWFv6q/seB7AtpmIP4RGaTHMhhk36ct1Z5rHHaZ0b+RBp20vv8mX3YhYwufxP77Hvug4n9sJhy1b7uOSU1flP7HE9h57SJ/3Xt+zFtYl93TuFzOyz+TOzrnlP+nBK3fZ53decUHf6m44/Lvsk55ftfd06DkHJUKzYIqV4WEJOJ1D/pwiYyk6BPkn1dIZEav6l9nYnUhL+ufX8iM7EPIcXiJGhxZnJO+fEHIVWIoz+R6550Ll49cUCFjd8k6EwmUp8/hDT4Lo8Uf10h8+2bCJnOpKNr35/ITOyHxTRPCRL2/ZhOiv245jSff1z2/Zg2sa8T0+x/rEgVguuy0zmgwk56k6CDkOrf2tadyKX4m9o3ETKdSUfXPoQUj8t4XtGJP90LGZNzyo8/nZiGkAa8/gEh1X9GCyGFkPLEozPpQEjxvROTFSGEVLHS0716iFvI4rYvefXEbWNFmoxbqzqTjsmFjK6Q+fGnM5FJ2PdXBCb2w2LaP6f5b9ijBRP7pnNa3PZ1Ykpy/HHZ92PaxL7OxSFWpFiR8jlddDMJOpOJ1J90wiYyV+2bCpnOSW/C39S+iZDpTDq69k0mcn/8EFJ82YjPF9VmMqf48acT0xDSAOjsDD7pdSYyH7rOpOMLSdhJL+l0bjtK+/5Epht0bB9CmowVsU5Mm/gfQopbuy7OqRkvsPEeqeISBkKK1190TnoJITG5kJK0DyENf49W9+LYvzjnv2EXkhIX5759nZh20b7JOeWPX3dxkEGKQA6v4huEFEKqM+lIClnc9iGkEFIWk6DN9EJCJ6Z9IdOJP137okLqdRgrUkWUQEghpDonPYQ0+m8tm0ykPv+wxxV8mvM5zVucK8K47evEtAl/XSHjcbs6p+I9UvauYnPV6XxlFjbpmFy9+ROZ7m0QbjtsInPVvu5ELjV+U/s6KwIT/+vaN5nIffthMc2nuYR9UyHhfoTFv8n4Te1DSPVTJOrOaRBSjmrFxiddXEFnMpH6J52u07ntsEnHxL4/kZnYD5tIXLWvO5FLjd/UPoQUt3b5vA7akiLkJueU6ZwKIQ2IEAgpbu3qXEiZXEiYClnc9iGkEFIIafAvmvGFBIQUQlqUgMnVm4mQ+FevWJHi9ZeigfdVob8iMBHysLss3LTuhYyJfT+mk2Jf5+JMcvxx2TeZ0/zx695lg5AGnM1YkWJFqnPSm1xI6E7kJie9pH0TIdOZdHTH709kJvaTImQ85YRdSJqM31TIdWLaRfsm55Q/fp2YxooUCRmUlxEmQWcykfsnfdhE4qp9XSGRGr+pfRMh05l0dO37E5mJfQgpMhvxRYJqMzmn/PjTiWkIaQB0dgaf9HFdvUk6ndsOm3RM7ENIo3/9Q4q/rpD59k2ETGfS0bXvT2Qm9sNi2j+n+W/YhZyJff/iMCn245rTfP5x2fdj2sS+TkwXhNQLGLxHyh4uskFIcWtX56QzuZDQFRKTk17SvomQ6Uw6uuM3ETJ//EkRMp5q4hRynZg24W96IRGXfZNzyh+/TkwXhBSZjYoo6FdFEFIIqc5J70/kOiedrpCYnPSS9iGk+NYux3XQBiH15knvxMaKVBElEFIIKYQ0XEgkhNxfEZgIOVakeEbK56tqM7k49eNP5+K4sCL1GoeQKshDSCGkEFIIadQrMp5ucGu3RjHrriv2hUznQkp3RQwhrak8dHYnhBRCCiGFkEJIcWs3SPWxIg24DQAhXUuFAPEY8S2zoM3k1p5/9Rh2RW5y9Zgk+3xxxltc4ze1r7MiMOGva99kReLbx61d3NrFrd0iM3WcK0LuTpz2TYTEn3R07+dz22GTjol9fyIzsR+XkMQt5LpCIsXf1D6ENHxF7sdU2Dnlzyn8Nyz+/XNah7+pfZ27LC7aNzmn/PHrzmn/DyBlvLdMPfQ1AAAAAElFTkSuQmCC;" vertex="1" parent="1">
          <mxGeometry x="60" y="385" width="31.92" height="30" as="geometry" />
        </mxCell>
      </root>
    </mxGraphModel>
  </diagram>
</mxfile>
